<?xml version="1.0" encoding="UTF-8"?>
<svg xmlns="http://www.w3.org/2000/svg" xmlns:xlink="http://www.w3.org/1999/xlink" width="1481.97pt" height="1481.97pt" viewBox="0 0 1481.97 1481.97" version="1.1">
<defs>
<clipPath id="clip1">
  <path d="M 0 0 L 1481.96875 0 L 1481.96875 1481.96875 L 0 1481.96875 Z M 0 0 "/>
</clipPath>
</defs>
<g id="surface1">
<g clip-path="url(#clip1)" clip-rule="nonzero">
<path style=" stroke:none;fill-rule:evenodd;fill:rgb(32.499695%,72.898865%,36.898804%);fill-opacity:1;" d="M 1481.96875 740.984375 C 1481.96875 1150.21875 1150.21875 1481.96875 740.984375 1481.96875 C 331.75 1481.96875 0 1150.21875 0 740.984375 C 0 331.75 331.75 0 740.984375 0 C 1150.21875 0 1481.96875 331.75 1481.96875 740.984375 "/>
</g>
<path style=" stroke:none;fill-rule:evenodd;fill:rgb(0.799561%,0.799561%,0.799561%);fill-opacity:1;" d="M 1282.511719 595.757813 C 1282.289063 649.410156 1226.039063 682.265625 1178.921875 655.605469 C 1146.96875 637.527344 1114.261719 621.140625 1080.191406 607.480469 C 1012.5 580.34375 942.347656 562.082031 870.644531 549.433594 C 820.730469 540.628906 770.445313 534.800781 719.886719 531.761719 C 667.3125 528.605469 614.707031 528.234375 562.058594 530.957031 C 501.734375 534.082031 441.886719 540.703125 382.828125 553.460938 C 361.035156 558.167969 339.496094 564.101563 317.945313 569.863281 C 304.730469 573.394531 291.703125 573.84375 278.539063 569.992188 C 249.726563 561.5625 229.863281 535.746094 229.007813 505.515625 C 228.179688 476.148438 246.296875 448.851563 274.761719 439.46875 C 295.601563 432.601563 316.988281 427.199219 338.390625 422.25 C 391.363281 410.011719 445.082031 402.441406 499.230469 397.488281 C 556.71875 392.25 614.316406 390.558594 671.949219 392.210938 C 813.945313 396.269531 953.175781 417.039063 1087.921875 463.550781 C 1142.859375 482.519531 1195.738281 506.0625 1246 535.386719 C 1263.910156 545.84375 1275.941406 560.574219 1280.519531 580.953125 C 1281.609375 585.792969 1281.871094 590.820313 1282.511719 595.757813 "/>
<path style=" stroke:none;fill-rule:evenodd;fill:rgb(0.799561%,0.799561%,0.799561%);fill-opacity:1;" d="M 611.765625 761.257813 C 527.128906 761.609375 440.433594 772.101563 355.75 797.234375 C 341.949219 801.328125 328.105469 801.605469 314.585938 796.128906 C 292.582031 787.214844 278.265625 765.164063 279.042969 741.835938 C 279.851563 717.5 294.691406 696.304688 318.152344 689.140625 C 342.027344 681.851563 366.261719 675.53125 390.632813 670.117188 C 450.628906 656.792969 511.433594 649.746094 572.875 647.414063 C 705.054688 642.398438 834.179688 659.496094 960.148438 699.871094 C 1023.851563 720.289063 1084.78125 747.019531 1142.328125 781.246094 C 1145.199219 782.949219 1148.039063 784.691406 1150.878906 786.429688 C 1180.898438 804.765625 1184.480469 841.683594 1170.171875 865.207031 C 1153.800781 892.105469 1119.761719 900.46875 1091.46875 884.511719 C 1075.511719 875.511719 1059.738281 866.125 1043.421875 857.808594 C 968.628906 819.6875 889.324219 794.972656 807.035156 779.398438 C 743.675781 767.40625 679.722656 761.542969 611.765625 761.257813 "/>
<path style=" stroke:none;fill-rule:evenodd;fill:rgb(0.799561%,0.799561%,0.799561%);fill-opacity:1;" d="M 624.996094 886.777344 C 722.421875 887.800781 817.730469 900.96875 910.222656 932.164063 C 961.242188 949.367188 1009.960938 971.628906 1056.230469 999.191406 C 1060.238281 1001.578125 1064.308594 1003.929688 1068.011719 1006.738281 C 1086.679688 1020.921875 1091.53125 1046.589844 1079.511719 1066.800781 C 1067.859375 1086.398438 1043.128906 1094.289063 1021.980469 1084.949219 C 1017.738281 1083.078125 1013.761719 1080.558594 1009.75 1078.179688 C 931.332031 1031.699219 846.710938 1002.910156 756.761719 989.132813 C 701.566406 980.679688 646.0625 977.746094 590.328125 979.9375 C 518.230469 982.773438 447.042969 992.773438 376.609375 1008.371094 C 369.496094 1009.941406 362.175781 1011.371094 354.9375 1011.449219 C 333.128906 1011.691406 314.722656 996.222656 310.894531 975.25 C 306.839844 953.042969 317.839844 932.226563 338.210938 924.039063 C 342.507813 922.3125 347.097656 921.207031 351.636719 920.1875 C 409.246094 907.253906 467.398438 897.472656 526.238281 892.496094 C 559.085938 889.714844 592.074219 888.625 624.996094 886.777344 "/>
</g>
</svg>
